<?xml version="1.0" encoding="UTF-8" standalone="no"?>
<!-- Creator: CorelDRAW X6 -->

<svg
   xmlns:dc="http://purl.org/dc/elements/1.1/"
   xmlns:cc="http://creativecommons.org/ns#"
   xmlns:rdf="http://www.w3.org/1999/02/22-rdf-syntax-ns#"
   xmlns:svg="http://www.w3.org/2000/svg"
   xmlns="http://www.w3.org/2000/svg"
   xmlns:sodipodi="http://sodipodi.sourceforge.net/DTD/sodipodi-0.dtd"
   xmlns:inkscape="http://www.inkscape.org/namespaces/inkscape"
   xml:space="preserve"
   width="96.497322"
   height="70.312546"
   version="1.1"
   style="fill-rule:evenodd"
   viewBox="0 0 3069.4325 2236.6868"
   id="svg2"
   inkscape:version="0.48.3.1 r9886"
   sodipodi:docname="logo.svg"><metadata
   id="metadata75"><rdf:RDF><cc:Work
       rdf:about=""><dc:format>image/svg+xml</dc:format><dc:type
         rdf:resource="http://purl.org/dc/dcmitype/StillImage" /><dc:title></dc:title></cc:Work></rdf:RDF></metadata><sodipodi:namedview
   pagecolor="#ffffff"
   bordercolor="#666666"
   borderopacity="1"
   objecttolerance="10"
   gridtolerance="10"
   guidetolerance="10"
   inkscape:pageopacity="0"
   inkscape:pageshadow="2"
   inkscape:window-width="875"
   inkscape:window-height="519"
   id="namedview73"
   showgrid="false"
   inkscape:zoom="2.1040667"
   inkscape:cx="31.534461"
   inkscape:cy="69.322369"
   inkscape:window-x="257"
   inkscape:window-y="132"
   inkscape:window-maximized="0"
   inkscape:current-layer="svg2"
   fit-margin-top="0"
   fit-margin-left="0"
   fit-margin-right="0"
   fit-margin-bottom="0" />
 <defs
   id="defs4">
  <style
   type="text/css"
   id="style6">
   
    .str0 {stroke:#2A2A29;stroke-width:56.3521}
    .fil2 {fill:#2A2A29}
    .fil0 {fill:#FEFEFE}
    .fil1 {fill:#2A2A29;fill-rule:nonzero}
   
  </style>
 
  
  
  
  
  
  
  
  
  
  
 </defs>
 
<g
   id="g3189"
   transform="matrix(0.62684118,0,0,0.62684118,-1.7335412,0.11753272)"><g
     transform="translate(4.009612,1)"
     id="_246053144">
   <path
   class="fil0"
   d="m 1467,3241 c 321,0 643,0 964,0 321,0 643,0 965,0 55,0 117,13 138,29 41,31 85,65 133,102 52,40 108,83 170,130 36,28 5,52 -72,52 -446,0 -892,0 -1338,0 -446,0 -892,0 -1338,0 -76,0 -106,-24 -69,-51 63,-47 120,-91 173,-130 49,-37 94,-71 136,-102 22,-16 83,-29 138,-29 z"
   id="path11"
   inkscape:connector-curvature="0"
   style="fill:#fefefe" />
   <path
   class="fil1"
   d="m 3847,3487 3,2 c 8,6 12,12 15,17 3,7 1,15 -4,23 -7,12 -18,20 -31,26 -16,7 -41,12 -74,12 l -1338,0 -1338,0 c -31,0 -55,-4 -70,-11 -7,-3 -12,-7 -15,-12 -3,-5 -4,-12 -1,-19 3,-8 10,-17 19,-25 -1,0 -2,-1 -3,-1 -7,-3 -12,-7 -15,-12 -3,-5 -4,-12 -1,-19 4,-11 14,-22 28,-33 l 173,-130 136,-102 c 14,-10 37,-19 64,-25 25,-5 55,-9 83,-9 l 964,0 965,0 c 28,0 57,3 83,9 25,5 46,13 57,21 l 133,102 48,36 122,94 c 8,6 12,12 15,17 3,7 1,15 -4,23 -4,6 -8,11 -13,15 z m -36,18 c -15,4 -34,6 -56,6 l -1338,0 -1338,0 c -21,0 -38,-2 -52,-5 l -8,6 c -1,1 0,-1 -1,0 -1,2 0,5 1,8 2,4 7,7 13,10 14,6 37,10 67,10 l 1338,0 1338,0 c 28,0 49,-3 62,-8 l -1,-1 c -2,-5 -6,-10 -13,-15 l -14,-11 z m 29,30 0,0 c -1,1 -1,1 0,0 z"
   id="path13"
   inkscape:connector-curvature="0"
   style="fill:#2a2a29;fill-rule:nonzero" />
   <path
   class="fil0"
   d="m 1358,3289 c 53,0 106,0 159,0 -17,17 -35,35 -54,54 -56,0 -112,0 -168,0 22,-19 43,-36 64,-54 z"
   id="path15"
   inkscape:connector-curvature="0"
   style="fill:#fefefe" />
   <path
   class="fil0"
   d="m 1689,3289 c 53,0 106,0 159,0 -11,17 -23,35 -35,54 -56,0 -112,0 -168,0 15,-19 30,-36 44,-54 z"
   id="path17"
   inkscape:connector-curvature="0"
   style="fill:#fefefe" />
   <path
   class="fil0"
   d="m 2020,3289 c 53,0 106,0 159,0 -5,17 -10,35 -15,54 -56,0 -112,0 -168,0 9,-19 17,-36 25,-54 z"
   id="path19"
   inkscape:connector-curvature="0"
   style="fill:#fefefe" />
   <path
   class="fil0"
   d="m 2351,3289 c 53,0 106,0 159,0 1,17 3,35 4,54 -56,0 -112,0 -168,0 2,-19 4,-36 5,-54 z"
   id="path21"
   inkscape:connector-curvature="0"
   style="fill:#fefefe" />
   <path
   class="fil0"
   d="m 2682,3289 c 53,0 106,0 159,0 7,17 15,35 23,54 -56,0 -112,0 -168,0 -5,-19 -10,-36 -14,-54 z"
   id="path23"
   inkscape:connector-curvature="0"
   style="fill:#fefefe" />
   <path
   class="fil0"
   d="m 3012,3289 c 53,0 106,0 159,0 14,17 28,35 43,54 -56,0 -112,0 -168,0 -12,-19 -23,-36 -33,-54 z"
   id="path25"
   inkscape:connector-curvature="0"
   style="fill:#fefefe" />
   <path
   class="fil0"
   d="m 3343,3289 c 53,0 106,0 159,0 20,17 41,35 62,54 -56,0 -112,0 -168,0 -18,-19 -36,-36 -53,-54 z"
   id="path27"
   inkscape:connector-curvature="0"
   style="fill:#fefefe" />
   <path
   class="fil0"
   d="m 1236,3392 c 59,0 118,0 177,0 -22,21 -44,44 -68,67 -63,0 -126,0 -188,0 27,-23 54,-45 79,-67 z"
   id="path29"
   inkscape:connector-curvature="0"
   style="fill:#fefefe" />
   <path
   class="fil0"
   d="m 1604,3392 c 59,0 118,0 177,0 -14,21 -28,44 -43,67 -63,0 -125,0 -188,0 19,-23 37,-45 55,-67 z"
   id="path31"
   inkscape:connector-curvature="0"
   style="fill:#fefefe" />
   <path
   class="fil0"
   d="m 1972,3392 c 59,0 118,0 177,0 -6,21 -13,44 -19,67 -63,0 -125,0 -188,0 11,-23 21,-45 31,-67 z"
   id="path33"
   inkscape:connector-curvature="0"
   style="fill:#fefefe" />
   <path
   class="fil0"
   d="m 2340,3392 c 59,0 118,0 177,0 2,21 3,44 5,67 -63,0 -126,0 -188,0 2,-23 5,-45 7,-67 z"
   id="path35"
   inkscape:connector-curvature="0"
   style="fill:#fefefe" />
   <path
   class="fil0"
   d="m 2709,3392 c 59,0 118,0 177,0 9,21 19,44 29,67 -63,0 -125,0 -188,0 -6,-23 -12,-45 -17,-67 z"
   id="path37"
   inkscape:connector-curvature="0"
   style="fill:#fefefe" />
   <path
   class="fil0"
   d="m 3077,3392 c 59,0 118,0 177,0 17,21 35,44 53,67 -63,0 -125,0 -188,0 -14,-23 -28,-45 -42,-67 z"
   id="path39"
   inkscape:connector-curvature="0"
   style="fill:#fefefe" />
   <path
   class="fil0"
   d="m 3445,3392 c 59,0 118,0 177,0 25,21 50,44 77,67 -63,0 -126,0 -188,0 -23,-23 -45,-45 -66,-67 z"
   id="path41"
   inkscape:connector-curvature="0"
   style="fill:#fefefe" />
   <path
   class="fil0"
   d="m 1458,3205 c 48,0 96,0 144,0 -14,14 -29,29 -44,44 -51,0 -101,0 -152,0 18,-15 35,-30 52,-44 z"
   id="path43"
   inkscape:connector-curvature="0"
   style="fill:#fefefe" />
   <path
   class="fil0"
   d="m 1758,3205 c 48,0 96,0 144,0 -9,14 -19,29 -29,44 -51,0 -101,0 -152,0 12,-15 25,-30 36,-44 z"
   id="path45"
   inkscape:connector-curvature="0"
   style="fill:#fefefe" />
   <path
   class="fil0"
   d="m 2059,3205 c 48,0 96,0 144,0 -4,14 -8,29 -13,44 -51,0 -101,0 -152,0 7,-15 14,-30 20,-44 z"
   id="path47"
   inkscape:connector-curvature="0"
   style="fill:#fefefe" />
   <path
   class="fil0"
   d="m 2359,3205 c 48,0 96,0 144,0 1,14 2,29 3,44 -51,0 -101,0 -152,0 2,-15 3,-30 4,-44 z"
   id="path49"
   inkscape:connector-curvature="0"
   style="fill:#fefefe" />
   <path
   class="fil0"
   d="m 2660,3205 c 48,0 96,0 144,0 6,14 13,29 19,44 -51,0 -101,0 -152,0 -4,-15 -8,-30 -12,-44 z"
   id="path51"
   inkscape:connector-curvature="0"
   style="fill:#fefefe" />
   <path
   class="fil0"
   d="m 2960,3205 c 48,0 96,0 144,0 11,14 23,29 35,44 -51,0 -101,0 -152,0 -9,-15 -19,-30 -27,-44 z"
   id="path53"
   inkscape:connector-curvature="0"
   style="fill:#fefefe" />
   <path
   class="fil0"
   d="m 3260,3205 c 48,0 96,0 144,0 16,14 33,29 51,44 -51,0 -101,0 -152,0 -15,-15 -29,-30 -43,-44 z"
   id="path55"
   inkscape:connector-curvature="0"
   style="fill:#fefefe" />
  </g><path
     sodipodi:nodetypes="ccccccccccccscsccccccccccccccccccccccc"
     class="fil2 str0"
     d="m 2457.0096,29 c 427,0 810,190 1069,489 172,-41 421,-126 615,-98 -170,83 -326,184 -472,296 69,116 123,241.99997 157,376 279,-126.00003 604,-296 1048,-694 0,0 -343,730 -475,801 236,16 428,-175 428,-175 0,0 -350,542 -556,618 93,51 220,45 346,8 -302,422 -539,488 -938,500 -27,47 -57,93 -90,136 l 0,666 c 0,66 -33,132 -87,185 -49,49 -109,79 -170,79 l -1842,0 0,0 -1,0 0,0 c -49.1064,-6.4519 -103.9859,-25.9135 -136,-57 -35,-35 -57,-84 -57,-138 l 0,3 0,0 0,-3 0,0 0,-772 c -22,-32 -44,-65 -63,-99 -404.99999,-12 -642.99999,-75 -947.99999,-501 127,37 254,42 346,-8 -206,-76 -555.999998,-618 -555.999998,-618 0,0 191.999998,191 427.999998,175 -132,-71 -474.999998,-801 -474.999998,-801 448.999998,403 775.999998,571.99997 1056.999988,698 34,-133.00003 86,-259 155,-375 -148,-114 -305.99999,-216 -478.99999,-301 197,-29 450.99999,59 622.99999,100 259,-301 643,-491 1071,-491 z"
     id="path59"
     inkscape:connector-curvature="0"
     style="fill:#2a2a29;stroke:#2a2a29;stroke-width:56.35210037" /><rect
     ry="177.64392"
     y="1686.729"
     x="1356.9618"
     height="1474.0676"
     width="2199.7629"
     id="rect3148"
     style="fill:#ffffff;stroke-width:40;stroke-miterlimit:4;stroke-dasharray:120, 40;stroke-dashoffset:0" /><path
     sodipodi:nodetypes="cccc"
     class="fil2"
     d="m 2812.3347,1490.1864 -389.5086,457.5425 -359.2712,-449.9832 z"
     id="path65-9"
     inkscape:connector-curvature="0"
     style="fill:#2a2a29;fill-rule:evenodd" /><path
     class="fil0"
     d="m 1797.0096,663 c 308,0 558,249.99997 558,558 0,308 -250,558 -558,558 -308,0 -558,-250 -558,-558 0,-308.00003 250,-558 558,-558 z"
     id="path61"
     inkscape:connector-curvature="0"
     style="fill:#fefefe" /><path
     class="fil2"
     d="m 1797.0096,960.99997 c 144,0 261,117.00003 261,261.00003 0,144 -117,261 -261,261 -144,0 -261,-117 -261,-261 0,-144 117,-261.00003 261,-261.00003 z"
     id="path65"
     inkscape:connector-curvature="0"
     style="fill:#2a2a29" /><path
     class="fil0"
     d="m 3088.0096,663 c 308,0 558,249.99997 558,558 0,308 -250,558 -558,558 -308,0 -558,-250 -558,-558 0,-308.00003 250,-558 558,-558 z"
     id="path67"
     inkscape:connector-curvature="0"
     style="fill:#fefefe" /><path
     class="fil2"
     d="m 3087.0096,960.99997 c 144,0 261,117.00003 261,261.00003 0,144 -117,261 -261,261 -144,0 -261,-117 -261,-261 0,-144 117,-261.00003 261,-261.00003 z"
     id="path71"
     inkscape:connector-curvature="0"
     style="fill:#2a2a29" /><path
     class="fil1"
     d="m 3088.0096,635 c 162,0 309,66 415,172 106,105.99997 172,253 172,415 0,162 -66,309 -172,415 -106,106 -253,172 -415,172 -162,0 -309,-66 -415,-172 -106,-106 -172,-253 -172,-415 0,-162 66,-309.00003 172,-415 106,-106 253,-172 415,-172 z m 375,212 c -96,-96 -229,-155 -375,-155 -146,0 -279,59 -375,155 -96,95.99997 -155,229 -155,375 0,146 59,279 155,375 96,96 229,155 375,155 146,0 279,-59 375,-155 96,-96 155,-229 155,-375 0,-146 -59,-279.00003 -155,-375 z"
     id="path69"
     inkscape:connector-curvature="0"
     style="fill:#2a2a29;fill-rule:nonzero" /><path
     class="fil1"
     d="m 1797.0096,635 c 162,0 309,66 415,172 106,105.99997 172,253 172,415 0,162 -66,309 -172,415 -106,106 -253,172 -415,172 -162,0 -309,-66 -415,-172 -106,-106 -172,-253 -172,-415 0,-162 66,-309.00003 172,-415 106,-106 253,-172 415,-172 z m 375,212 c -96,-96 -229,-155 -375,-155 -146,0 -279,59 -375,155 -96,95.99997 -155,229 -155,375 0,146 59,279 155,375 96,96 229,155 375,155 146,0 279,-59 375,-155 96,-96 155,-229 155,-375 0,-146 -59,-279.00003 -155,-375 z"
     id="path63"
     inkscape:connector-curvature="0"
     style="fill:#2a2a29;fill-rule:nonzero" /></g></svg>